<svg xmlns="http://www.w3.org/2000/svg" xmlns:xlink="http://www.w3.org/1999/xlink" width="214" zoomAndPan="magnify" viewBox="0 0 160.5 149.999998" height="200" preserveAspectRatio="xMidYMid meet" version="1.0"><defs><g/><clipPath id="793cadfa32"><path d="M 0 0.234375 L 160 0.234375 L 160 149.765625 L 0 149.765625 Z M 0 0.234375 " clip-rule="nonzero"/></clipPath><clipPath id="7aa772c4fb"><path d="M 5.003906 18 L 154.539062 18 L 154.539062 132 L 5.003906 132 Z M 5.003906 18 " clip-rule="nonzero"/></clipPath></defs><g clip-path="url(#793cadfa32)"><path fill="none" d="M 0 0.234375 L 160 0.234375 L 160 149.765625 L 0 149.765625 Z M 0 0.234375 " fill-opacity="0" fill-rule="nonzero"/></g><g clip-path="url(#7aa772c4fb)"><path fill="#ffffff" d="M 152.4375 26.230469 L 154.539062 26.230469 L 154.539062 18.925781 L 5.003906 18.925781 L 5.003906 26.230469 L 7.109375 26.230469 C 8.015625 26.230469 8.753906 27.054688 8.753906 28.074219 L 8.753906 34.09375 C 8.753906 35.109375 8.015625 35.9375 7.109375 35.9375 L 5.003906 35.9375 L 5.003906 114.066406 L 7.109375 114.066406 C 8.015625 114.066406 8.753906 114.890625 8.753906 115.910156 L 8.753906 121.929688 C 8.753906 122.949219 8.015625 123.773438 7.109375 123.773438 L 5.003906 123.773438 L 5.003906 131.074219 L 154.539062 131.074219 L 154.539062 123.769531 L 152.4375 123.769531 C 151.527344 123.769531 150.792969 122.945312 150.792969 121.925781 L 150.792969 115.90625 C 150.792969 114.890625 151.527344 114.066406 152.4375 114.066406 L 154.539062 114.066406 L 154.539062 35.933594 L 152.4375 35.933594 C 151.527344 35.933594 150.792969 35.109375 150.792969 34.089844 L 150.792969 28.070312 C 150.789062 27.054688 151.527344 26.230469 152.4375 26.230469 Z M 135.847656 28.070312 C 135.847656 27.054688 136.585938 26.226562 137.492188 26.226562 L 141.589844 26.226562 C 142.5 26.226562 143.238281 27.050781 143.238281 28.070312 L 143.238281 34.09375 C 143.238281 35.109375 142.5 35.9375 141.589844 35.9375 L 137.492188 35.9375 C 136.582031 35.9375 135.847656 35.109375 135.847656 34.09375 Z M 120.90625 28.070312 C 120.90625 27.054688 121.640625 26.226562 122.550781 26.226562 L 126.648438 26.226562 C 127.554688 26.226562 128.292969 27.050781 128.292969 28.070312 L 128.292969 34.09375 C 128.292969 35.109375 127.554688 35.9375 126.648438 35.9375 L 122.550781 35.9375 C 121.640625 35.9375 120.90625 35.109375 120.90625 34.09375 Z M 105.960938 28.070312 C 105.960938 27.054688 106.699219 26.226562 107.605469 26.226562 L 111.703125 26.226562 C 112.613281 26.226562 113.347656 27.050781 113.347656 28.070312 L 113.347656 34.09375 C 113.347656 35.109375 112.613281 35.9375 111.703125 35.9375 L 107.605469 35.9375 C 106.695312 35.9375 105.960938 35.109375 105.960938 34.09375 Z M 91.019531 28.070312 C 91.019531 27.054688 91.757812 26.226562 92.664062 26.226562 L 96.761719 26.226562 C 97.671875 26.226562 98.40625 27.050781 98.40625 28.070312 L 98.40625 34.09375 C 98.40625 35.109375 97.667969 35.9375 96.761719 35.9375 L 92.664062 35.9375 C 91.753906 35.9375 91.019531 35.109375 91.019531 34.09375 Z M 76.078125 28.070312 C 76.078125 27.054688 76.8125 26.226562 77.722656 26.226562 L 81.820312 26.226562 C 82.726562 26.226562 83.464844 27.050781 83.464844 28.070312 L 83.464844 34.09375 C 83.464844 35.109375 82.726562 35.9375 81.820312 35.9375 L 77.722656 35.9375 C 76.8125 35.9375 76.078125 35.109375 76.078125 34.09375 Z M 61.132812 28.070312 C 61.132812 27.054688 61.871094 26.226562 62.777344 26.226562 L 66.875 26.226562 C 67.785156 26.226562 68.519531 27.050781 68.519531 28.070312 L 68.519531 34.09375 C 68.519531 35.109375 67.78125 35.9375 66.875 35.9375 L 62.777344 35.9375 C 61.867188 35.9375 61.132812 35.109375 61.132812 34.09375 Z M 46.191406 28.070312 C 46.191406 27.054688 46.929688 26.226562 47.835938 26.226562 L 51.933594 26.226562 C 52.84375 26.226562 53.578125 27.050781 53.578125 28.070312 L 53.578125 34.09375 C 53.578125 35.109375 52.839844 35.9375 51.933594 35.9375 L 47.835938 35.9375 C 46.925781 35.9375 46.191406 35.109375 46.191406 34.09375 Z M 31.25 28.070312 C 31.25 27.054688 31.984375 26.226562 32.894531 26.226562 L 36.992188 26.226562 C 37.898438 26.226562 38.636719 27.050781 38.636719 28.070312 L 38.636719 34.09375 C 38.636719 35.109375 37.898438 35.9375 36.992188 35.9375 L 32.894531 35.9375 C 31.984375 35.9375 31.25 35.109375 31.25 34.09375 Z M 16.304688 28.070312 C 16.304688 27.054688 17.042969 26.226562 17.949219 26.226562 L 22.050781 26.226562 C 22.960938 26.226562 23.699219 27.050781 23.699219 28.070312 L 23.699219 34.09375 C 23.699219 35.109375 22.960938 35.9375 22.050781 35.9375 L 17.953125 35.9375 C 17.042969 35.9375 16.308594 35.109375 16.308594 34.09375 Z M 23.695312 121.929688 C 23.695312 122.945312 22.960938 123.773438 22.050781 123.773438 L 17.953125 123.773438 C 17.042969 123.773438 16.308594 122.949219 16.308594 121.929688 L 16.308594 115.90625 C 16.308594 114.890625 17.046875 114.066406 17.953125 114.066406 L 22.050781 114.066406 C 22.960938 114.066406 23.699219 114.890625 23.699219 115.90625 Z M 38.640625 121.929688 C 38.640625 122.945312 37.902344 123.773438 36.996094 123.773438 L 32.898438 123.773438 C 31.988281 123.773438 31.253906 122.949219 31.253906 121.929688 L 31.253906 115.90625 C 31.253906 114.890625 31.988281 114.066406 32.898438 114.066406 L 36.996094 114.066406 C 37.902344 114.066406 38.640625 114.890625 38.640625 115.90625 Z M 53.582031 121.929688 C 53.582031 122.945312 52.84375 123.773438 51.9375 123.773438 L 47.839844 123.773438 C 46.929688 123.773438 46.195312 122.949219 46.195312 121.929688 L 46.195312 115.90625 C 46.195312 114.890625 46.933594 114.066406 47.839844 114.066406 L 51.9375 114.066406 C 52.847656 114.066406 53.582031 114.890625 53.582031 115.90625 Z M 68.523438 121.929688 C 68.523438 122.945312 67.789062 123.773438 66.878906 123.773438 L 62.78125 123.773438 C 61.875 123.773438 61.136719 122.949219 61.136719 121.929688 L 61.136719 115.90625 C 61.136719 114.890625 61.875 114.066406 62.78125 114.066406 L 66.878906 114.066406 C 67.789062 114.066406 68.523438 114.890625 68.523438 115.90625 Z M 83.46875 121.929688 C 83.46875 122.945312 82.730469 123.773438 81.824219 123.773438 L 77.726562 123.773438 C 76.816406 123.773438 76.078125 122.949219 76.078125 121.929688 L 76.078125 115.90625 C 76.078125 114.890625 76.816406 114.066406 77.726562 114.066406 L 81.824219 114.066406 C 82.730469 114.066406 83.46875 114.890625 83.46875 115.90625 Z M 98.410156 121.929688 C 98.410156 122.945312 97.671875 123.773438 96.765625 123.773438 L 92.667969 123.773438 C 91.757812 123.773438 91.023438 122.949219 91.023438 121.929688 L 91.023438 115.90625 C 91.023438 114.890625 91.761719 114.066406 92.667969 114.066406 L 96.765625 114.066406 C 97.675781 114.066406 98.410156 114.890625 98.410156 115.90625 Z M 113.351562 121.929688 C 113.351562 122.945312 112.617188 123.773438 111.707031 123.773438 L 107.609375 123.773438 C 106.703125 123.773438 105.964844 122.949219 105.964844 121.929688 L 105.964844 115.90625 C 105.964844 114.890625 106.703125 114.066406 107.609375 114.066406 L 111.707031 114.066406 C 112.617188 114.066406 113.351562 114.890625 113.351562 115.90625 Z M 128.296875 121.929688 C 128.296875 122.945312 127.558594 123.773438 126.652344 123.773438 L 122.554688 123.773438 C 121.644531 123.773438 120.910156 122.949219 120.910156 121.929688 L 120.910156 115.90625 C 120.910156 114.890625 121.644531 114.066406 122.554688 114.066406 L 126.652344 114.066406 C 127.558594 114.066406 128.296875 114.890625 128.296875 115.90625 Z M 143.238281 121.929688 C 143.238281 122.945312 142.5 123.773438 141.589844 123.773438 L 137.492188 123.773438 C 136.582031 123.773438 135.847656 122.949219 135.847656 121.929688 L 135.847656 115.90625 C 135.847656 114.890625 136.585938 114.066406 137.492188 114.066406 L 141.589844 114.066406 C 142.5 114.066406 143.238281 114.890625 143.238281 115.90625 Z M 150.09375 111.136719 L 9.449219 111.136719 L 9.449219 38.863281 L 150.09375 38.863281 Z M 150.09375 111.136719 " fill-opacity="1" fill-rule="nonzero"/></g><g fill="#ffffff" fill-opacity="1"><g transform="translate(14.63458, 91.82259)"><g><path d="M 15.109375 -1.140625 L 13.515625 -31.40625 L 11.96875 -1.140625 C 11.945312 -0.703125 11.84375 -0.398438 11.65625 -0.234375 C 11.46875 -0.078125 11.144531 0 10.6875 0 L 5.390625 0 C 4.984375 0 4.6875 -0.078125 4.5 -0.234375 C 4.3125 -0.398438 4.195312 -0.703125 4.15625 -1.140625 L 0.359375 -42.9375 C 0.335938 -43.007812 0.328125 -43.144531 0.328125 -43.34375 C 0.328125 -43.582031 0.390625 -43.742188 0.515625 -43.828125 C 0.648438 -43.910156 0.894531 -43.953125 1.25 -43.953125 L 3.859375 -43.953125 C 4.398438 -43.953125 4.898438 -43.753906 5.359375 -43.359375 C 5.816406 -42.972656 6.066406 -42.5 6.109375 -41.9375 L 8.078125 -6.3125 L 10.296875 -41.9375 C 10.367188 -42.5 10.609375 -42.972656 11.015625 -43.359375 C 11.429688 -43.753906 11.898438 -43.953125 12.421875 -43.953125 L 14.625 -43.953125 C 15.144531 -43.953125 15.617188 -43.753906 16.046875 -43.359375 C 16.472656 -42.972656 16.707031 -42.5 16.75 -41.9375 L 18.96875 -6.21875 L 20.96875 -41.9375 C 21.007812 -42.5 21.253906 -42.972656 21.703125 -43.359375 C 22.148438 -43.753906 22.644531 -43.953125 23.1875 -43.953125 L 25.8125 -43.953125 C 26.4375 -43.953125 26.75 -43.734375 26.75 -43.296875 C 26.75 -43.128906 26.738281 -43.007812 26.71875 -42.9375 L 22.921875 -1.140625 C 22.878906 -0.703125 22.742188 -0.398438 22.515625 -0.234375 C 22.285156 -0.078125 21.941406 0 21.484375 0 L 16.328125 0 C 15.910156 0 15.601562 -0.078125 15.40625 -0.234375 C 15.207031 -0.398438 15.109375 -0.703125 15.109375 -1.140625 Z M 15.109375 -1.140625 "/></g></g></g><g fill="#ffffff" fill-opacity="1"><g transform="translate(42.852421, 91.82259)"><g><path d="M 11.546875 -35.90625 L 14.875 -1.015625 C 14.90625 -0.953125 14.921875 -0.820312 14.921875 -0.625 C 14.921875 -0.382812 14.851562 -0.21875 14.71875 -0.125 C 14.582031 -0.0390625 14.34375 0 14 0 L 11.375 0 C 10.832031 0 10.335938 -0.191406 9.890625 -0.578125 C 9.441406 -0.972656 9.207031 -1.457031 9.1875 -2.03125 L 8.96875 -6.15625 L 6.25 -6.15625 L 6.046875 -2.03125 C 6.003906 -1.457031 5.765625 -0.972656 5.328125 -0.578125 C 4.890625 -0.191406 4.398438 0 3.859375 0 L 1.25 0 C 0.613281 0 0.296875 -0.21875 0.296875 -0.65625 C 0.296875 -0.832031 0.304688 -0.953125 0.328125 -1.015625 L 3.703125 -35.90625 C 3.742188 -36.320312 3.851562 -36.617188 4.03125 -36.796875 C 4.21875 -36.972656 4.519531 -37.0625 4.9375 -37.0625 L 10.265625 -37.0625 C 10.703125 -37.0625 11.015625 -36.972656 11.203125 -36.796875 C 11.390625 -36.617188 11.503906 -36.320312 11.546875 -35.90625 Z M 7.625 -30.640625 L 7.5625 -30.546875 L 6.46875 -10.296875 L 8.734375 -10.296875 Z M 7.625 -30.640625 "/></g></g></g><g fill="#ffffff" fill-opacity="1"><g transform="translate(58.282713, 91.82259)"><g><path d="M 10.625 -32.28125 L 10.625 -1.140625 C 10.625 -0.703125 10.535156 -0.398438 10.359375 -0.234375 C 10.191406 -0.078125 9.898438 0 9.484375 0 L 6.046875 0 C 5.628906 0 5.335938 -0.078125 5.171875 -0.234375 C 5.015625 -0.398438 4.9375 -0.703125 4.9375 -1.140625 L 4.9375 -32.28125 L 2.9375 -32.28125 C 1.257812 -32.28125 0.421875 -33.226562 0.421875 -35.125 L 0.421875 -35.984375 C 0.421875 -36.703125 0.78125 -37.0625 1.5 -37.0625 L 13.875 -37.0625 C 14.59375 -37.0625 14.953125 -36.703125 14.953125 -35.984375 L 14.953125 -35.125 C 14.953125 -34.207031 14.734375 -33.503906 14.296875 -33.015625 C 13.859375 -32.523438 13.234375 -32.28125 12.421875 -32.28125 Z M 10.625 -32.28125 "/></g></g></g><g fill="#ffffff" fill-opacity="1"><g transform="translate(76.100588, 91.82259)"><g><path d="M 9.1875 -37.75 C 11.394531 -37.75 13.195312 -37.125 14.59375 -35.875 C 15.914062 -34.675781 16.578125 -33.207031 16.578125 -31.46875 L 16.578125 -21.296875 C 16.578125 -20.679688 16.25 -20.375 15.59375 -20.375 L 12.859375 -20.375 C 12.347656 -20.375 11.894531 -20.503906 11.5 -20.765625 C 11.113281 -21.023438 10.921875 -21.394531 10.921875 -21.875 L 10.921875 -31.234375 C 10.921875 -31.648438 10.75 -32.015625 10.40625 -32.328125 C 10.070312 -32.648438 9.632812 -32.8125 9.09375 -32.8125 C 8.550781 -32.8125 8.113281 -32.648438 7.78125 -32.328125 C 7.457031 -32.015625 7.296875 -31.648438 7.296875 -31.234375 L 7.296875 -5.828125 C 7.296875 -5.410156 7.457031 -5.039062 7.78125 -4.71875 C 8.113281 -4.40625 8.550781 -4.25 9.09375 -4.25 C 9.675781 -4.25 10.117188 -4.40625 10.421875 -4.71875 C 10.734375 -5.039062 10.890625 -5.410156 10.890625 -5.828125 L 10.890625 -14.84375 C 10.890625 -15.320312 11.082031 -15.691406 11.46875 -15.953125 C 11.863281 -16.222656 12.316406 -16.359375 12.828125 -16.359375 L 15.5625 -16.359375 C 16.238281 -16.359375 16.578125 -16.0625 16.578125 -15.46875 L 16.578125 -5.59375 C 16.578125 -3.820312 15.890625 -2.335938 14.515625 -1.140625 C 13.117188 0.078125 11.28125 0.6875 9 0.6875 C 6.769531 0.6875 4.976562 0.078125 3.625 -1.140625 C 2.300781 -2.335938 1.640625 -3.820312 1.640625 -5.59375 L 1.640625 -31.46875 C 1.640625 -33.226562 2.328125 -34.707031 3.703125 -35.90625 C 5.117188 -37.132812 6.945312 -37.75 9.1875 -37.75 Z M 9.1875 -37.75 "/></g></g></g><g fill="#ffffff" fill-opacity="1"><g transform="translate(96.829172, 91.82259)"><g><path d="M 16.28125 -36.015625 L 16.28125 -1.046875 C 16.28125 -0.628906 16.207031 -0.34375 16.0625 -0.1875 C 15.925781 -0.0390625 15.664062 0.03125 15.28125 0.03125 L 12.6875 0.03125 C 12.144531 0.03125 11.664062 -0.160156 11.25 -0.546875 C 10.832031 -0.941406 10.625 -1.425781 10.625 -2 L 10.625 -16.21875 L 7.234375 -16.21875 L 7.234375 -2.03125 C 7.234375 -1.457031 7.023438 -0.972656 6.609375 -0.578125 C 6.191406 -0.191406 5.710938 0 5.171875 0 L 2.578125 0 C 2.191406 0 1.925781 -0.0703125 1.78125 -0.21875 C 1.632812 -0.375 1.5625 -0.648438 1.5625 -1.046875 L 1.5625 -36.015625 C 1.5625 -36.398438 1.632812 -36.671875 1.78125 -36.828125 C 1.925781 -36.984375 2.191406 -37.0625 2.578125 -37.0625 L 5.171875 -37.0625 C 5.753906 -37.0625 6.242188 -36.863281 6.640625 -36.46875 C 7.035156 -36.070312 7.234375 -35.570312 7.234375 -34.96875 L 7.234375 -20.859375 L 10.625 -20.859375 L 10.625 -35.03125 C 10.625 -35.59375 10.832031 -36.070312 11.25 -36.46875 C 11.664062 -36.863281 12.144531 -37.0625 12.6875 -37.0625 L 15.28125 -37.0625 C 15.664062 -37.0625 15.925781 -36.984375 16.0625 -36.828125 C 16.207031 -36.671875 16.28125 -36.398438 16.28125 -36.015625 Z M 16.28125 -36.015625 "/></g></g></g><g fill="#ffffff" fill-opacity="1"><g transform="translate(117.198009, 91.82259)"><g><path d="M 12.140625 0 L 2.546875 0 C 2.160156 0 1.898438 -0.078125 1.765625 -0.234375 C 1.628906 -0.398438 1.5625 -0.679688 1.5625 -1.078125 L 1.5625 -36.015625 C 1.5625 -36.398438 1.632812 -36.671875 1.78125 -36.828125 C 1.925781 -36.984375 2.191406 -37.0625 2.578125 -37.0625 L 5.171875 -37.0625 C 5.753906 -37.0625 6.242188 -36.863281 6.640625 -36.46875 C 7.035156 -36.070312 7.234375 -35.570312 7.234375 -34.96875 L 7.234375 -4.78125 L 10.734375 -4.78125 C 11.515625 -4.78125 12.117188 -4.53125 12.546875 -4.03125 C 12.972656 -3.539062 13.1875 -2.84375 13.1875 -1.9375 L 13.1875 -1.078125 C 13.1875 -0.359375 12.835938 0 12.140625 0 Z M 12.140625 0 "/></g></g></g><g fill="#ffffff" fill-opacity="1"><g transform="translate(129.586703, 91.82259)"><g><path d="M 10.625 -32.28125 L 10.625 -1.140625 C 10.625 -0.703125 10.535156 -0.398438 10.359375 -0.234375 C 10.191406 -0.078125 9.898438 0 9.484375 0 L 6.046875 0 C 5.628906 0 5.335938 -0.078125 5.171875 -0.234375 C 5.015625 -0.398438 4.9375 -0.703125 4.9375 -1.140625 L 4.9375 -32.28125 L 2.9375 -32.28125 C 1.257812 -32.28125 0.421875 -33.226562 0.421875 -35.125 L 0.421875 -35.984375 C 0.421875 -36.703125 0.78125 -37.0625 1.5 -37.0625 L 13.875 -37.0625 C 14.59375 -37.0625 14.953125 -36.703125 14.953125 -35.984375 L 14.953125 -35.125 C 14.953125 -34.207031 14.734375 -33.503906 14.296875 -33.015625 C 13.859375 -32.523438 13.234375 -32.28125 12.421875 -32.28125 Z M 10.625 -32.28125 "/></g></g></g></svg>